<svg width="149" height="76" viewBox="0 0 149 76" fill="none" xmlns="http://www.w3.org/2000/svg">
<path d="M25.4414 45.9746C25.3112 45.9746 17.4661 43.4681 1.90625 38.4551C0.929688 38.1296 0.441406 37.3483 0.441406 36.1113C0.441406 34.4512 0.929688 33.4746 1.90625 33.1816C17.4661 28.3314 25.2949 25.9062 25.3926 25.9062C26.1087 25.9062 26.4668 26.4922 26.4668 27.6641C26.4668 29.0312 25.9948 29.8613 25.0508 30.1543L4.49414 36.4531L25.7344 43.2891C26.2227 43.4518 26.4668 43.9238 26.4668 44.7051C26.4668 45.5514 26.125 45.9746 25.4414 45.9746ZM38.8203 75.1738C37.6159 75.1738 36.4277 74.8646 35.2559 74.2461C34.1165 73.6276 33.5469 72.6185 33.5469 71.2188C33.5469 63.3086 33.6445 51.1504 33.8398 34.7441C34.0677 18.3379 34.1816 7.56315 34.1816 2.41992C34.1816 1.37826 34.8001 0.857422 36.0371 0.857422C37.6647 0.857422 46.7305 1.08529 63.2344 1.54102C64.1458 1.57357 64.6016 2.07812 64.6016 3.05469C64.6016 3.47786 64.4551 3.83594 64.1621 4.12891C63.9017 4.38932 63.5762 4.51953 63.1855 4.51953C58.5306 4.51953 53.8431 4.42188 49.123 4.22656C46.7793 4.12891 44.4355 4.0638 42.0918 4.03125L41.75 36.209H61.2812C61.6719 36.209 61.9974 36.3555 62.2578 36.6484C62.5508 36.9089 62.6973 37.2344 62.6973 37.625C62.6973 38.0156 62.5508 38.3574 62.2578 38.6504C61.9974 38.9108 61.6719 39.041 61.2812 39.041H41.75L41.4082 70.6816C59.3444 61.2415 68.4264 56.5215 68.6543 56.5215C69.1426 56.5215 69.5332 56.7819 69.8262 57.3027C69.9564 57.5306 70.0215 57.7585 70.0215 57.9863C70.0215 58.5072 69.7611 58.9141 69.2402 59.207L42.0918 74.1484C40.8548 74.832 39.7643 75.1738 38.8203 75.1738ZM78.4688 75.1738C77.2643 75.1738 76.0762 74.8646 74.9043 74.2461C73.7324 73.6276 73.1465 72.6185 73.1465 71.2188C73.1465 60.4766 73.2441 49.7344 73.4395 38.9922C73.6999 26.5247 73.8301 14.0736 73.8301 1.63867C73.8301 1.21549 73.9766 0.857422 74.2695 0.564453C74.5951 0.238932 74.9857 0.0761719 75.4414 0.0761719C79.6406 0.0761719 81.7402 1.37826 81.7402 3.98242C81.7402 15.6361 81.6426 27.2897 81.4473 38.9434C81.252 49.5228 81.1217 60.1022 81.0566 70.6816C92.7428 64.6595 98.7161 61.6484 98.9766 61.6484C99.5299 61.6484 99.9368 61.8926 100.197 62.3809C100.327 62.6087 100.393 62.8203 100.393 63.0156C100.393 63.6016 100.132 64.041 99.6113 64.334L81.7402 74.1484C80.5033 74.832 79.4128 75.1738 78.4688 75.1738ZM103.762 71.8047C103.273 71.8047 102.883 71.6257 102.59 71.2676C102.395 70.9746 102.297 70.6816 102.297 70.3887C102.297 69.998 106.333 46.9512 114.406 1.24805C114.471 0.857422 114.634 0.564453 114.895 0.369141C115.188 0.173828 115.48 0.0761719 115.773 0.0761719C116.294 0.0761719 116.669 0.238932 116.896 0.564453C117.124 0.857422 117.238 1.15039 117.238 1.44336C117.238 1.63867 113.186 24.7018 105.08 70.6328C104.917 71.4141 104.478 71.8047 103.762 71.8047ZM123.195 45.9746C122.479 45.9746 122.121 45.5514 122.121 44.7051C122.121 43.9238 122.382 43.4518 122.902 43.2891L144.094 36.4531L123.586 30.1543C122.609 29.8613 122.121 29.0312 122.121 27.6641C122.121 26.4922 122.495 25.9062 123.244 25.9062C123.342 25.9062 131.171 28.3314 146.73 33.1816C147.674 33.4746 148.146 34.4512 148.146 36.1113C148.146 37.3483 147.674 38.1296 146.73 38.4551C131.138 43.4681 123.293 45.9746 123.195 45.9746Z" fill="#C1F9FF"/>
</svg>
